<?xml version="1.0" encoding="utf-8"?>
<!-- Generator: Adobe Illustrator 25.0.1, SVG Export Plug-In . SVG Version: 6.00 Build 0)  -->
<svg version="1.1" id="Layer_1" xmlns="http://www.w3.org/2000/svg" xmlns:xlink="http://www.w3.org/1999/xlink" x="0px" y="0px"
	 viewBox="0 0 201.22 49.95" style="enable-background:new 0 0 201.22 49.95;" xml:space="preserve">
<style type="text/css">
	.st0{font-family:'DINPro-Regular';}
	.st1{font-size:9.8742px;}
	.st2{fill:#FFFFFF;}
	.st3{font-family:'Didot-Bold';}
	.st4{font-size:4.608px;}
	.st5{font-size:7.0023px;}
</style>
<g>
	<path d="M67.4,27.74h-2.63v7.47h-0.4c-0.24-0.24-0.44-0.41-0.59-0.49c-0.15-0.09-0.4-0.13-0.72-0.13c-0.4,0-0.8,0.1-1.2,0.31
		c-0.41,0.21-0.88,0.44-1.42,0.71c-0.54,0.26-1.17,0.5-1.89,0.71c-0.72,0.21-1.6,0.31-2.63,0.31c-1.56,0-2.94-0.26-4.15-0.77
		c-1.21-0.52-2.37-1.33-3.49-2.45c-1.1-1.1-2.01-2.39-2.73-3.88c-0.72-1.49-1.09-3.17-1.09-5.04c0-1.25,0.14-2.37,0.43-3.37
		c0.28-1,0.63-1.87,1.04-2.62c0.41-0.75,0.82-1.37,1.25-1.88c0.43-0.5,0.78-0.9,1.07-1.18c0.99-0.99,2.12-1.79,3.39-2.4
		c1.27-0.61,2.72-0.92,4.34-0.92c0.83,0,1.52,0.07,2.06,0.2c0.54,0.13,1,0.28,1.4,0.44c0.4,0.16,0.75,0.31,1.07,0.44
		c0.32,0.13,0.67,0.2,1.07,0.2c0.44,0,0.75-0.06,0.94-0.18c0.19-0.12,0.37-0.29,0.54-0.51h0.49v6.58h-0.36
		c-0.09-0.57-0.26-1.24-0.51-2.01c-0.25-0.77-0.65-1.5-1.18-2.2c-0.54-0.7-1.25-1.29-2.14-1.78c-0.89-0.48-2.02-0.72-3.41-0.72
		c-1.65,0-2.97,0.35-3.97,1.04c-1,0.69-1.78,1.6-2.34,2.73c-0.56,1.13-0.93,2.41-1.12,3.83c-0.19,1.43-0.28,2.86-0.28,4.31
		c0,0.99,0.04,1.97,0.13,2.96c0.09,0.99,0.24,1.92,0.44,2.8c0.21,0.88,0.5,1.69,0.87,2.44c0.37,0.75,0.86,1.38,1.45,1.91
		c0.66,0.59,1.34,1,2.04,1.23c0.7,0.23,1.61,0.35,2.73,0.35c0.68,0,1.36-0.12,2.04-0.35c0.68-0.23,1.29-0.58,1.83-1.04
		c0.54-0.46,0.98-1.05,1.32-1.76c0.34-0.71,0.51-1.55,0.51-2.52v-2.76h-4.25v-0.46H67.4V27.74z"/>
	<path d="M69.11,35.68h3.65V13.16h-3.65V12.7h10.6v0.46h-3.65v22.51h5.86c1.93,0,3.44-0.6,4.54-1.81c1.1-1.21,1.9-2.85,2.4-4.94
		h0.36v7.21H69.11V35.68z"/>
	<path d="M92.91,24.39c0-1.76,0.35-3.38,1.04-4.87c0.69-1.49,1.58-2.79,2.67-3.88c1.09-1.1,2.31-1.96,3.67-2.58
		c1.36-0.63,2.72-0.94,4.08-0.94c1.45,0,2.86,0.31,4.23,0.94c1.37,0.63,2.59,1.49,3.67,2.58c1.07,1.1,1.94,2.39,2.58,3.88
		c0.65,1.49,0.97,3.12,0.97,4.87c0,1.54-0.3,3.04-0.89,4.51c-0.59,1.47-1.4,2.78-2.44,3.92c-1.03,1.14-2.24,2.06-3.64,2.76
		c-1.39,0.7-2.89,1.05-4.49,1.05c-1.65,0-3.17-0.34-4.57-1.02c-1.4-0.68-2.62-1.59-3.64-2.72c-1.02-1.13-1.82-2.44-2.39-3.92
		C93.19,27.5,92.91,25.97,92.91,24.39z M96.69,24.39c0,1.97,0.13,3.7,0.4,5.17c0.26,1.47,0.7,2.7,1.32,3.69
		c0.61,0.99,1.4,1.72,2.37,2.21c0.97,0.48,2.16,0.72,3.59,0.72c1.4,0,2.59-0.24,3.57-0.72c0.98-0.48,1.77-1.22,2.39-2.21
		c0.61-0.99,1.05-2.22,1.32-3.69c0.26-1.47,0.4-3.19,0.4-5.17c0-1.51-0.1-2.98-0.3-4.39c-0.2-1.41-0.58-2.68-1.14-3.79
		c-0.56-1.11-1.34-1.99-2.34-2.65c-1-0.66-2.3-0.99-3.9-0.99c-1.6,0-2.9,0.33-3.9,0.99c-1,0.66-1.78,1.54-2.34,2.65
		c-0.56,1.11-0.94,2.37-1.14,3.79C96.79,21.41,96.69,22.87,96.69,24.39z"/>
	<path d="M117.13,12.7h9.91v0.46h-3.42l6.78,19.09h0.07l4.38-12.14l-2.5-6.95h-2.76V12.7h9.87v0.46h-3.59l6.78,19.09h0.07
		l6.91-19.09h-3.52V12.7h7.04v0.46h-2.96l-8.52,23.47h-0.82l-5.66-15.8h-0.07l-5.73,15.8h-0.89l-8.39-23.47h-2.96V12.7z"/>
</g>
<text transform="matrix(1 0 0 1 47.0393 9.1808)" class="st0 st1">THE</text>
<g>
	<path d="M152.9,12.7h10.6v0.46h-3.65v15.9c0,1.32,0.12,2.43,0.35,3.34c0.23,0.91,0.58,1.65,1.04,2.2c0.46,0.56,1.03,0.96,1.71,1.2
		c0.68,0.24,1.46,0.36,2.34,0.36c1.23,0,2.31-0.18,3.26-0.54c0.94-0.36,1.75-1,2.44-1.93c0.22-0.28,0.41-0.57,0.58-0.86
		c0.16-0.28,0.31-0.62,0.43-1c0.12-0.38,0.21-0.84,0.28-1.38c0.07-0.54,0.1-1.2,0.1-1.99V13.16h-3.65V12.7h7.8v0.46h-3.65v15.96
		c0,0.92-0.1,1.76-0.3,2.52c-0.2,0.76-0.6,1.54-1.22,2.35c-0.59,0.79-1.42,1.43-2.47,1.91c-1.05,0.48-2.45,0.72-4.18,0.72
		c-2.63,0-4.65-0.65-6.04-1.94c-1.39-1.29-2.09-3.28-2.09-5.96V13.16h-3.65V12.7z"/>
	<path d="M178.17,35.68h3.65V13.16h-3.65V12.7h6.19c0.31,0,0.61-0.01,0.92-0.02c0.31-0.01,0.61-0.03,0.92-0.05
		c0.31,0,0.61-0.01,0.91-0.02c0.3-0.01,0.6-0.02,0.91-0.02c1.25,0,2.41,0.15,3.47,0.44c1.06,0.3,1.99,0.72,2.76,1.27
		c0.78,0.55,1.39,1.21,1.83,1.97c0.44,0.77,0.66,1.62,0.66,2.57c0,0.99-0.25,1.87-0.76,2.63c-0.51,0.77-1.17,1.42-2.01,1.94
		c-0.83,0.53-1.81,0.93-2.91,1.22c-1.11,0.29-2.27,0.43-3.47,0.43c-0.31,0-0.7-0.03-1.18-0.08c-0.48-0.05-0.91-0.12-1.28-0.18v10.86
		h3.65v0.46h-10.6V35.68z M185.12,24.35c0.44,0.09,0.9,0.15,1.38,0.2c0.48,0.04,0.91,0.07,1.28,0.07c1.62,0,2.89-0.48,3.8-1.43
		c0.91-0.95,1.37-2.4,1.37-4.33c0-1.12-0.11-2.05-0.33-2.8c-0.22-0.75-0.57-1.34-1.04-1.79c-0.47-0.45-1.09-0.76-1.84-0.94
		c-0.76-0.17-1.66-0.26-2.72-0.26c-0.42,0-0.8,0.01-1.14,0.03c-0.34,0.02-0.6,0.04-0.77,0.07V24.35z"/>
</g>
<text transform="matrix(1 0 0 1 156.5705 46.9572)" class="st0 st1">SEATTLE</text>
<circle cx="20.19" cy="24.02" r="16.84"/>
<text transform="matrix(1 0 0 1 14.9885 20.0832)"><tspan x="0" y="0" class="st2 st3 st4">the</tspan><tspan x="-6.59" y="5.58" class="st2 st3 st5">Glow</tspan><tspan x="0.21" y="11.17" class="st2 st3 st5">Up</tspan></text>
</svg>
